<?xml version="1.0" encoding="utf-8"?>
<!-- Generator: Adobe Illustrator 17.1.0, SVG Export Plug-In . SVG Version: 6.00 Build 0)  -->
<!DOCTYPE svg PUBLIC "-//W3C//DTD SVG 1.1//EN" "http://www.w3.org/Graphics/SVG/1.1/DTD/svg11.dtd">
<svg version="1.1" width="270px" height="262px" id="Calque_1" xmlns="http://www.w3.org/2000/svg" xmlns:xlink="http://www.w3.org/1999/xlink" x="0px" y="0px"
	 viewBox="0 0 270 262" enable-background="new 0 0 270 262" xml:space="preserve">
<path fill="#4CACDB" d="M124.8,57.9c-43.5,0-78.7,35.2-78.7,78.7c0,43.5,35.2,78.7,78.7,78.7c43.5,0,78.7-35.2,78.7-78.7
	C203.5,93.1,168.3,57.9,124.8,57.9z"/>
<rect x="121.5" y="-33.1" transform="matrix(0.7071 0.7071 -0.7071 0.7071 133.9235 -45.5825)" fill="#B2DBF0" width="1" height="344"/>
<rect x="147.4" y="-50.1" transform="matrix(0.7071 0.7071 -0.7071 0.7071 129.5402 -68.8287)" fill="#B2DBF0" width="1" height="344"/>
<g>
	<path fill="#353436" d="M150.1,28.8c-43.5,0-78.7,35.2-78.7,78.7c0,43.5,35.2,78.7,78.7,78.7c43.5,0,78.7-35.2,78.7-78.7
		C228.8,64,193.6,28.8,150.1,28.8z M192.6,74.3c-3.6,0.1-6.2-2-6.3-5.4c0-1.2,0.3-2.3,1.1-3.5c0.8-1.6,1-1.8,1-2.5
		c-0.1-2.1-3.2-2.2-4.1-2.1c-11.8,0.4-14.9,16.3-17.4,29.3l-1.2,6.8c6.8,1,11.6-0.2,14.3-2c3.8-2.5-1.1-5-0.5-7.8
		c0.6-2.9,3.2-4.2,5.3-4.3c2.9-0.1,4.9,2.9,4.9,6c-0.1,5-6.8,11.9-20.1,11.6c-1.6,0-3.1-0.2-4.5-0.3l-2.5,13.9
		c-2.3,10.5-5.2,24.9-16,37.4c-9.2,10.9-18.5,12.6-22.7,12.8c-7.8,0.3-13-3.9-13.2-9.5c-0.2-5.4,4.6-8.3,7.7-8.4
		c4.2-0.1,7.1,2.9,7.2,6.4c0.1,3-1.4,3.9-2.5,4.4c-0.7,0.5-1.7,1.1-1.7,2.3c0,0.5,0.6,1.7,2.3,1.7c3.3-0.1,5.5-1.7,7-2.8
		c7.6-6.3,10.5-17.4,14.4-37.5l0.8-4.9c1.3-6.6,2.8-13.9,5-21.1c-5.4-4-8.6-9.1-15.8-11c-4.9-1.3-8-0.2-10.1,2.5
		c-2.5,3.2-1.7,7.3,0.8,9.7l4,4.4c4.9,5.7,7.6,10.1,6.6,16.1c-1.6,9.5-12.9,16.8-26.3,12.7c-11.4-3.5-13.5-11.6-12.2-16.1
		c1.2-3.9,4.3-4.7,7.4-3.7c3.3,1,4.5,5,3.6,8c-0.1,0.3-0.3,0.9-0.6,1.6c-0.4,0.8-1.1,1.6-1.4,2.6c-0.7,2.4,2.5,4.1,4.8,4.8
		c5.1,1.6,10.1-1.1,11.4-5.2c1.2-3.8-1.2-6.4-2.2-7.5l-4.8-5.2c-2.2-2.5-7.1-9.3-4.7-17.1c0.9-3,2.8-6.1,5.6-8.2
		c5.9-4.4,12.3-5.1,18.4-3.4c7.9,2.3,11.7,7.5,16.6,11.6c2.8-8.1,6.6-16,12.3-22.7c5.2-6.1,12.2-10.5,20.2-10.8
		c8-0.3,14,3.4,14.2,9.1C198.8,69.4,197.4,74.1,192.6,74.3z"/>
</g>
<path fill="#FFFFFF" d="M192.6,74.3c-3.6,0.1-6.2-2-6.3-5.4c0-1.2,0.3-2.3,1.1-3.5c0.8-1.6,1-1.8,1-2.5c-0.1-2.1-3.2-2.2-4.1-2.1
	c-11.8,0.4-14.9,16.3-17.4,29.3l-1.2,6.8c6.8,1,11.6-0.2,14.3-2c3.8-2.5-1.1-5-0.5-7.8c0.6-2.9,3.2-4.2,5.3-4.3
	c2.9-0.1,4.9,2.9,4.9,6c-0.1,5-6.8,11.9-20.1,11.6c-1.6,0-3.1-0.2-4.5-0.3l-2.5,13.9c-2.3,10.5-5.2,24.9-16,37.4
	c-9.2,10.9-18.5,12.6-22.7,12.8c-7.8,0.3-13-3.9-13.2-9.5c-0.2-5.4,4.6-8.3,7.7-8.4c4.2-0.1,7.1,2.9,7.2,6.4c0.1,3-1.4,3.9-2.5,4.4
	c-0.7,0.5-1.7,1.1-1.7,2.3c0,0.5,0.6,1.7,2.3,1.7c3.3-0.1,5.5-1.7,7-2.8c7.6-6.3,10.5-17.4,14.4-37.5l0.8-4.9
	c1.3-6.6,2.8-13.9,5-21.1c-5.4-4-8.6-9.1-15.8-11c-4.9-1.3-8-0.2-10.1,2.5c-2.5,3.2-1.7,7.3,0.8,9.7l4,4.4
	c4.9,5.7,7.6,10.1,6.6,16.1c-1.6,9.5-12.9,16.8-26.3,12.7c-11.4-3.5-13.5-11.6-12.2-16.1c1.2-3.9,4.3-4.7,7.4-3.7c3.3,1,4.5,5,3.6,8
	c-0.1,0.3-0.3,0.9-0.6,1.6c-0.4,0.8-1.1,1.6-1.4,2.6c-0.7,2.4,2.5,4.1,4.8,4.8c5.1,1.6,10.1-1.1,11.4-5.2c1.2-3.8-1.2-6.4-2.2-7.5
	l-4.8-5.2c-2.2-2.5-7.1-9.3-4.7-17.1c0.9-3,2.8-6.1,5.6-8.2c5.9-4.4,12.3-5.1,18.4-3.4c7.9,2.3,11.7,7.5,16.6,11.6
	c2.8-8.1,6.6-16,12.3-22.7c5.2-6.1,12.2-10.5,20.2-10.8c8-0.3,14,3.4,14.2,9.1C198.8,69.4,197.4,74.1,192.6,74.3z"/>
</svg>
